<?xml version="1.0" standalone="no"?>
<!DOCTYPE svg PUBLIC "-//W3C//DTD SVG 20010904//EN"
 "http://www.w3.org/TR/2001/REC-SVG-20010904/DTD/svg10.dtd">
<svg version="1.0" xmlns="http://www.w3.org/2000/svg"
 width="512.000000pt" height="512.000000pt" viewBox="0 0 512.000000 512.000000"
 preserveAspectRatio="xMidYMid meet">

<g transform="translate(0.000000,512.000000) scale(0.100000,-0.100000)"
fill="#000000" stroke="none">
<path d="M770 5113 c-376 -60 -654 -310 -746 -673 -18 -72 -19 -136 -19 -1880
0 -1744 1 -1808 19 -1880 84 -331 325 -572 656 -656 72 -18 136 -19 1880 -19
1744 0 1808 1 1880 19 326 83 561 314 652 641 15 53 21 115 25 257 l5 187 -25
25 c-31 31 -66 33 -98 7 -23 -19 -24 -26 -30 -198 -6 -203 -19 -266 -80 -388
-90 -184 -271 -330 -471 -381 -70 -18 -149 -19 -1858 -19 -2014 0 -1846 -7
-2010 79 -140 72 -244 176 -316 316 -86 164 -79 -4 -79 2010 0 2014 -7 1846
79 2010 72 140 176 244 316 316 164 86 -4 79 2010 79 1709 0 1788 -1 1858 -19
200 -51 381 -197 471 -381 82 -165 75 -19 81 -1698 l5 -1499 24 -19 c32 -26
67 -24 97 6 l24 25 -3 1502 c-3 1488 -3 1504 -23 1573 -98 328 -311 541 -639
639 -70 20 -78 20 -1865 22 -987 1 -1806 0 -1820 -3z"/>
<path d="M3740 3853 c-43 -7 -128 -42 -167 -67 -63 -41 -98 -78 -687 -733
-312 -348 -570 -633 -573 -633 -2 0 -62 54 -131 120 -70 66 -136 123 -147 126
-50 13 -104 -39 -91 -89 6 -24 302 -314 343 -336 13 -6 34 -9 48 -5 18 4 224
226 645 695 341 379 638 702 662 719 159 116 389 53 477 -130 38 -80 37 -192
-1 -271 -21 -41 -193 -240 -669 -770 -959 -1066 -896 -1000 -965 -1033 -50
-25 -71 -30 -140 -30 -140 -1 -138 -3 -727 555 -281 268 -533 509 -558 536
-59 63 -84 128 -84 218 0 92 25 156 87 221 68 72 131 98 233 99 114 0 160 -25
318 -175 70 -66 139 -123 152 -126 30 -7 72 17 84 49 15 38 -10 74 -135 190
-197 184 -255 213 -429 211 -121 -1 -187 -23 -278 -93 -182 -140 -238 -385
-135 -590 41 -81 62 -102 622 -631 628 -594 602 -573 738 -605 163 -38 306 -1
426 109 64 58 1520 1680 1560 1736 43 61 73 150 79 230 23 307 -252 555 -557
503z"/>
</g>
</svg>
